<?xml version="1.0" encoding="UTF-8"?>
<svg width="186px" height="37px" viewBox="0 0 186 37" version="1.1" xmlns="http://www.w3.org/2000/svg" xmlns:xlink="http://www.w3.org/1999/xlink">
    <!-- Generator: Sketch 46.2 (44496) - http://www.bohemiancoding.com/sketch -->
    <title>Artboard</title>
    <desc>Created with Sketch.</desc>
    <defs></defs>
    <g id="Page-1" stroke="none" stroke-width="1" fill="none" fill-rule="evenodd">
        <g id="Artboard" fill-rule="nonzero" fill="#294170">
            <g id="logo-01" transform="translate(1.000000, 0.000000)">
                <path d="M68.2960999,20.5110395 C67.876313,19.0754982 67.1623117,17.7384519 66.1975164,16.5812105 C65.7057637,16.013657 65.141529,15.5101896 64.5186497,15.0831556 C63.5215935,14.3971868 62.4154127,13.8771413 61.2448595,13.5440581 C59.9251168,13.1734593 58.5660286,12.9531063 57.1945935,12.8873765 L46.7016762,12.8873765 C45.9566791,12.8873765 45.3166111,12.8873765 44.7814724,12.8873765 C44.3556237,12.8652574 43.9315922,12.8172819 43.5118294,12.7437274 C43.459282,12.7325963 43.409411,12.7116962 43.3649285,12.6821635 L43.2809852,12.5179931 C43.1948277,12.4192858 43.1241065,12.3086367 43.0711269,12.1896523 C43.0711269,12.1178277 43.0081693,12.0357425 42.9661977,11.9433967 C43.053764,11.8039781 43.1595895,11.6763492 43.2809852,11.5637526 C43.3434506,11.503351 43.4140551,11.4515698 43.4908435,11.4098429 C43.5532606,11.3763061 43.6204606,11.3520963 43.690209,11.3380183 C44.0686962,11.2753847 44.4505803,11.2342731 44.8339369,11.2148905 C45.3061182,11.2148905 45.8832287,11.2148905 46.4918179,11.2148905 L67.7504682,11.2148905 L67.7504682,0 L45.1487245,0 C43.219099,0.0585005502 41.3047455,0.35498328 39.4510704,0.882415906 C38.6811208,1.11143176 37.9360427,1.4138634 37.226572,1.78535311 C35.9413692,2.46139483 34.8569291,3.45113451 34.0786968,4.65833513 C33.4590191,5.61186407 32.9853203,6.64890848 32.6726459,7.73653016 C32.3134608,9.01042909 32.0884413,10.3169076 32.0010992,11.6355772 C31.9808878,13.4093279 32.2395296,15.0931289 32.7670821,16.7043383 C33.2496345,18.1518942 34.0439614,19.4814561 35.0965098,20.6033854 C35.6302968,21.1642057 36.2370767,21.6540631 36.9012915,22.0603977 C37.969743,22.7029407 39.1398724,23.1675665 40.3639542,23.4353248 C41.7688768,23.7429819 43.2054206,23.891031 44.6450644,23.8765327 L54.718265,23.8765327 C55.6416417,23.8765327 56.4286105,23.8765327 57.0686784,23.9483573 C57.559212,23.9769855 58.046798,24.0421586 58.5271939,24.1433096 C58.6229314,24.1637725 58.7149243,24.1983712 58.8000098,24.2459161 L58.9364177,24.3485226 C59.0100883,24.423704 59.07038,24.5104056 59.1147973,24.6050389 C59.1568193,24.6876248 59.1919111,24.7734123 59.2197265,24.8615551 C59.1906115,24.9872955 59.1520323,25.1107596 59.1043044,25.2309385 C59.0688625,25.324438 59.0231242,25.4138899 58.9678965,25.4977154 C58.8747943,25.6537011 58.7109663,25.7566878 58.5271939,25.774753 C58.1284631,25.8260562 57.6143101,25.8773595 56.9847351,25.9081414 C56.3551601,25.9389234 55.6206559,25.9081414 54.7707296,25.9081414 L32.777575,25.9081414 L32.777575,36.9999042 L55.8305142,36.9999042 C57.8144611,37.0056411 59.7904047,36.7537644 61.7065479,36.2508767 C62.4745047,36.0605125 63.2200437,35.7922822 63.9310463,35.450546 C64.5885319,35.1045497 65.1926208,34.6692845 65.7253352,34.1577041 C66.2417303,33.6688721 66.6961835,33.1211312 67.0789215,32.5262607 C67.6732336,31.5687221 68.1221224,30.5318267 68.411522,29.4480657 C68.740814,28.1988331 68.9377196,26.9197708 68.9991253,25.6311039 C69.0163348,23.8452113 68.7795038,22.1480472 68.2960999,20.5110395 Z" id="Shape"></path>
                <polygon id="Shape" points="170.807781 19.332781 184.051791 0 172.61144 0 165.726617 10.5247169 157.275187 0 157.089668 0 145 0 159.192219 17.667219 145.937903 37 157.378253 37 164.263077 26.4752831 172.724813 37 172.910332 37 185 37"></polygon>
                <path d="M88.0002187,13.8200166 L88.0002187,37 L99.2755636,37 L99.2755636,26.4022671 L99.2755636,22.4741498 L125.968853,22.4741498 L125.968853,18.0243296 L125.968853,13.6256566 L125.823498,13.6256566 L117.673272,13.6256566 L111.007737,13.6256566 C109.799293,13.4802591 108.606158,13.9935846 107.893,14.9657174 C107.400966,15.5809117 106.820337,16.1219693 106.169513,16.5717445 C105.151753,17.1811991 103.975054,17.4834863 102.784833,17.4412497 C101.603283,17.4553975 100.426596,17.2897761 99.2963285,16.950235 C98.910043,16.8199508 98.5350577,16.6591673 98.1750235,16.4694498 C98.0166131,16.3871916 97.8728413,16.2800879 97.7493429,16.1523362 C97.4274868,15.8352226 97.4690166,15.671551 97.8739323,15.5692563 L101.601233,14.6383743 C102.078826,14.5156207 102.577184,14.3826375 102.732921,13.850705 C102.843604,13.5486246 102.90323,13.2306975 102.909422,12.9095936 C102.93383,11.6759312 102.571252,10.4649024 101.871177,9.4418026 C101.57046,9.01776413 101.117873,8.72170378 100.604518,8.61321537 C100.447035,8.58065776 100.284408,8.58065776 100.126925,8.61321537 L95.9739433,9.55432679 L95.7974416,9.55432679 C95.2990838,9.60547415 95.1121996,9.41111418 95.1848768,8.90987006 C95.2605579,8.49838963 95.4511063,8.11582366 95.7351468,7.80508709 C96.6208741,6.75705079 97.7165752,5.90037063 98.9537076,5.28863699 C100.822314,4.37901847 103.057729,4.62684707 104.67444,5.92286425 C105.537489,6.56389444 106.458474,7.12546459 107.42579,7.60049765 C108.466711,8.07825228 109.599878,8.32945814 110.748175,8.33701963 C115.828656,8.33701963 120.912598,8.33701963 126,8.33701963 L126,0 L100.220367,0 C92.0389932,0.388719934 87.9656105,4.99539213 88.0002187,13.8200166 Z" id="Shape"></path>
                <polygon id="Shape" points="16 0 16 37 27 37 27 0 26.8673469 0 16.1122449 0"></polygon>
                <polygon id="Shape" points="0.102040816 0 0 0 0 37 11 37 11 0 10.8673469 0"></polygon>
                <polygon id="Shape" points="71.1122449 0 71 0 71 37 71 37 82 37 82 37 82 0 81.8673469 0"></polygon>
                <polygon id="Shape" points="140.989805 8.3042394 140.989805 7.08423386 140.989805 0 140.86747 0 130.122335 0 130 0 130 7.08423386 130 8.3042394 130 37 130.010195 37 140.989805 37 141 37 140.989805 34.5087282"></polygon>
            </g>
        </g>
    </g>
</svg>