<?xml version="1.0" encoding="utf-8"?>
<!-- Generator: Adobe Illustrator 18.0.0, SVG Export Plug-In . SVG Version: 6.00 Build 0)  -->
<!DOCTYPE svg PUBLIC "-//W3C//DTD SVG 1.1//EN" "http://www.w3.org/Graphics/SVG/1.1/DTD/svg11.dtd">
<svg version="1.1" id="Layer_1" xmlns="http://www.w3.org/2000/svg" xmlns:xlink="http://www.w3.org/1999/xlink" x="0px" y="0px"
	 viewBox="0 0 186 37" enable-background="new 0 0 186 37" xml:space="preserve">
<title>Artboard</title>
<desc>Created with Sketch.</desc>
<g id="Page-1">
	<g id="Artboard">
		<g id="logo-01" transform="translate(1.000000, 0.000000)">
			<path id="Shape" fill="#FFFFFF" d="M68.3,20.5c-0.4-1.4-1.1-2.8-2.1-3.9c-0.5-0.6-1.1-1.1-1.7-1.5c-1-0.7-2.1-1.2-3.3-1.5
				c-1.3-0.4-2.7-0.6-4.1-0.7H46.7c-0.7,0-1.4,0-1.9,0c-0.4,0-0.8-0.1-1.3-0.1c-0.1,0-0.1,0-0.1-0.1l-0.1-0.2
				c-0.1-0.1-0.2-0.2-0.2-0.3c0-0.1-0.1-0.2-0.1-0.2c0.1-0.1,0.2-0.3,0.3-0.4c0.1-0.1,0.1-0.1,0.2-0.2c0.1,0,0.1-0.1,0.2-0.1
				c0.4-0.1,0.8-0.1,1.1-0.1c0.5,0,1,0,1.7,0h21.3V0H45.1c-1.9,0.1-3.8,0.4-5.7,0.9c-0.8,0.2-1.5,0.5-2.2,0.9
				c-1.3,0.7-2.4,1.7-3.1,2.9c-0.6,1-1.1,2-1.4,3.1c-0.4,1.3-0.6,2.6-0.7,3.9c0,1.8,0.2,3.5,0.8,5.1c0.5,1.4,1.3,2.8,2.3,3.9
				c0.5,0.6,1.1,1.1,1.8,1.5c1.1,0.6,2.2,1.1,3.5,1.4c1.4,0.3,2.8,0.5,4.3,0.4h10.1c0.9,0,1.7,0,2.4,0.1c0.5,0,1,0.1,1.5,0.2
				c0.1,0,0.2,0.1,0.3,0.1l0.1,0.1c0.1,0.1,0.1,0.2,0.2,0.3c0,0.1,0.1,0.2,0.1,0.3c0,0.1-0.1,0.2-0.1,0.4c0,0.1-0.1,0.2-0.1,0.3
				c-0.1,0.2-0.3,0.3-0.4,0.3c-0.4,0.1-0.9,0.1-1.5,0.1c-0.6,0-1.4,0-2.2,0h-22V37h23.1c2,0,4-0.2,5.9-0.7c0.8-0.2,1.5-0.5,2.2-0.8
				c0.7-0.3,1.3-0.8,1.8-1.3c0.5-0.5,1-1,1.4-1.6c0.6-1,1-2,1.3-3.1c0.3-1.2,0.5-2.5,0.6-3.8C69,23.8,68.8,22.1,68.3,20.5z"/>
			<polygon id="Shape_1_" fill="#FFFFFF" points="170.8,19.3 184.1,0 172.6,0 165.7,10.5 157.3,0 157.1,0 145,0 159.2,17.7 
				145.9,37 157.4,37 164.3,26.5 172.7,37 172.9,37 185,37 			"/>
			<path id="Shape_2_" fill="#FFFFFF" d="M88,13.8V37h11.3V26.4v-3.9H126V18v-4.4h-0.1h-8.2H111c-1.2-0.1-2.4,0.4-3.1,1.3
				c-0.5,0.6-1.1,1.2-1.7,1.6c-1,0.6-2.2,0.9-3.4,0.9c-1.2,0-2.4-0.2-3.5-0.5c-0.4-0.1-0.8-0.3-1.1-0.5c-0.2-0.1-0.3-0.2-0.4-0.3
				c-0.3-0.3-0.3-0.5,0.1-0.6l3.7-0.9c0.5-0.1,1-0.3,1.1-0.8c0.1-0.3,0.2-0.6,0.2-0.9c0-1.2-0.3-2.4-1-3.5c-0.3-0.4-0.8-0.7-1.3-0.8
				c-0.2,0-0.3,0-0.5,0L96,9.6h-0.2c-0.5,0.1-0.7-0.1-0.6-0.6c0.1-0.4,0.3-0.8,0.6-1.1c0.9-1,2-1.9,3.2-2.5c1.9-0.9,4.1-0.7,5.7,0.6
				c0.9,0.6,1.8,1.2,2.8,1.7c1,0.5,2.2,0.7,3.3,0.7c5.1,0,10.2,0,15.3,0V0h-25.8C92,0.4,88,5,88,13.8z"/>
			<polygon id="Shape_3_" fill="#FFFFFF" points="16,0 16,37 27,37 27,0 26.9,0 16.1,0 			"/>
			<polygon id="Shape_4_" fill="#FFFFFF" points="0.1,0 0,0 0,37 11,37 11,0 10.9,0 			"/>
			<polygon id="Shape_5_" fill="#FFFFFF" points="71.1,0 71,0 71,37 71,37 82,37 82,37 82,0 81.9,0 			"/>
			<polygon id="Shape_6_" fill="#FFFFFF" points="141,8.3 141,7.1 141,0 140.9,0 130.1,0 130,0 130,7.1 130,8.3 130,37 130,37 
				141,37 141,37 141,34.5 			"/>
		</g>
	</g>
</g>
</svg>
