<?xml version="1.0" encoding="UTF-8"?>
<svg width="2749px" height="584px" viewBox="0 0 2749 584" version="1.1" xmlns="http://www.w3.org/2000/svg" xmlns:xlink="http://www.w3.org/1999/xlink">
    <!-- Generator: Sketch 50.2 (55047) - http://www.bohemiancoding.com/sketch -->
    <title>iisifixi-logo</title>
    <desc>Created with Sketch.</desc>
    <defs></defs>
    <g id="iisifixi-logo" stroke="none" stroke-width="1" fill="none" fill-rule="evenodd">
        <g id="iisifix-svg" transform="translate(37.000000, 38.000000)" fill="#333366" fill-rule="nonzero">
            <g id="g10" transform="translate(1239.000000, 251.666700) scale(-1, 1) rotate(-180.000000) translate(-1239.000000, -251.666700) translate(0.000000, 0.666700)">
                <g id="g12">
                    <g id="g14-Clipped">
                        <g id="g14" transform="translate(0.333332, 0.333322)">
                            <g id="g24" transform="translate(425.427056, 1.003829)">
                                <path d="M477.333321,222.999994 C471.198655,243.171994 461.858655,260.947993 449.315989,275.83066 L449.314655,275.831993 C442.922656,283.419993 435.558656,290.149326 427.323989,295.967993 C414.969323,304.701326 400.68799,311.385326 384.68799,316.158659 C368.679991,320.933325 350.938658,323.818659 331.446658,324.958659 L331.051992,324.981325 L330.654658,324.981325 L194.145328,324.981325 C184.393329,324.981325 175.967996,325.215992 168.939996,325.665325 C161.919996,326.110658 156.277329,326.787992 152.270663,327.575992 L152.259996,327.577325 C151.426663,327.746658 150.878663,327.977325 150.279996,328.349325 C149.834663,328.633325 149.35733,329.015992 148.80133,329.618658 C147.974663,330.515992 146.978663,331.935992 145.97733,334.069325 C145.531996,335.014658 145.090663,336.118658 144.66133,337.335992 C146.099996,339.635991 147.506663,341.329325 148.767996,342.491991 C149.771996,343.422658 150.682663,344.047991 151.546663,344.498658 C152.41333,344.945325 153.24133,345.229325 154.189329,345.407991 C157.957329,346.109325 163.011996,346.699991 169.170662,347.091991 C175.333329,347.486658 182.613329,347.693325 190.949329,347.693325 L470.214655,347.693325 L469.641322,498.362654 L173.585329,498.362654 L173.259996,498.346654 C144.59333,496.961321 119.69733,493.090654 98.4173309,486.443988 C87.7786645,483.117321 78.0426647,479.087988 69.2306649,474.279988 C60.4213318,469.473322 52.5319987,463.882655 45.6746655,457.455989 C38.8933324,451.105322 32.8679992,443.815989 27.6279993,435.694656 C19.7626662,423.505323 13.661333,409.466656 9.17599977,393.745323 C4.69333322,378.015991 1.81199995,360.586658 0.41199999,341.435991 L0.370666657,340.878658 L0.371999991,340.319991 C0.427999989,315.715992 3.68399991,293.330659 10.4119997,273.297326 C17.1239996,253.275994 27.370666,235.642661 41.007999,220.947994 C47.9719988,213.430661 55.9319986,206.871995 64.770665,201.317328 C78.0333314,192.977328 93.241331,186.897329 110.193331,182.906662 C127.151997,178.914662 145.874663,176.991996 166.390663,176.989329 L298.673326,176.989329 C310.785326,176.990662 321.098659,176.671996 329.514658,176.061329 C337.913325,175.459996 344.455991,174.531996 348.713325,173.510662 C350.210658,173.151996 351.334658,172.678662 352.253325,172.138662 C352.943991,171.731996 353.527991,171.283996 354.085324,170.742662 C354.914658,169.929329 355.707991,168.886662 356.487991,167.345329 C356.970658,166.386662 357.434658,165.205329 357.857324,163.834663 C357.415991,161.889329 356.911991,160.206663 356.374658,158.834663 C355.782658,157.322663 355.163991,156.162663 354.579991,155.289329 C353.689324,153.974663 352.937325,153.298663 352.131991,152.777329 C351.318658,152.271996 350.361325,151.86933 348.770658,151.631996 C343.557325,150.879996 336.742658,150.27333 328.493325,149.870663 C320.241325,149.466663 310.541326,149.259996 299.445326,149.259996 L10.7759997,149.259996 L11.1413331,0.262666635 L313.497325,0.262666635 L313.601325,0.263999968 C343.354658,0.73333329 369.006657,3.96533321 390.765324,10.3053331 C401.641323,13.4826663 411.549323,17.4479995 420.458656,22.2999994 C429.363989,27.1493326 437.277322,32.8999992 444.042656,39.599999 C450.594655,46.0839988 456.394655,53.4426653 461.411988,61.5773318 C468.942655,73.7839981 474.714655,87.7146644 478.857321,103.206664 C482.999988,118.70533 485.527988,135.77733 486.558655,154.439996 L486.582655,154.878663 L486.582655,155.318663 C486.477321,180.237329 483.477321,202.815995 477.333321,222.999994" id="path26"></path>
                            </g>
                            <g id="g28" transform="translate(1940.704351, 0.189429)">
                                <polygon id="path30" points="345.333325 238.666661 522.486654 499.429321 369.509324 499.429321 277.415993 357.465324 164.387996 499.429321 161.901329 499.429321 0.269333327 499.429321 189.997329 261.129327 12.8439997 0.366666658 165.821329 0.366666658 257.915994 142.330663 370.942657 0.366666658 373.429324 0.366666658 535.06132 0.366666658"></polygon>
                            </g>
                            <g id="g32" transform="translate(1181.045570, 0.511696)">
                                <path d="M0.3333333,312.333326 L0.330861556,0.0439999739 L149.98533,0.0439999739 L149.98533,142.83333 L150.33733,195.802662 L504.582654,195.446662 L504.925321,255.35466 L504.925321,315.001325 C504.261321,314.999992 503.595987,314.998659 502.931987,314.997325 C466.845322,314.901325 430.770656,314.662659 394.689323,314.494659 C365.214658,314.358659 335.738658,314.242659 306.263992,314.097325 C295.419993,314.045325 284.963993,312.434659 276.213326,306.603992 C272.033327,303.819992 268.557327,299.887992 265.329327,295.993326 C258.575994,287.843993 251.323994,280.25466 242.467994,274.33866 C229.237328,265.501327 213.745328,262.925327 197.527995,262.687993 C181.975995,262.459993 166.470662,264.73466 151.171996,269.341327 C146.083996,270.873327 141.17733,273.391993 136.31733,275.771993 C134.250663,276.783993 132.326663,278.41066 130.671997,280.083993 C126.451997,284.35066 126.971997,286.615993 132.346663,287.982659 C148.823996,292.169326 165.335996,296.255993 181.789329,300.511992 C188.182662,302.166659 194.701328,304.022659 196.849328,311.151992 C198.075995,315.225325 199.377328,319.541325 199.211995,323.827992 C198.581328,340.126658 195.935995,356.206658 185.458662,370.519991 C181.241329,376.282657 175.562662,380.19199 168.642662,381.646657 C166.569329,382.08399 164.275996,382.15599 162.297329,381.714657 C143.70533,377.562657 125.159997,373.261324 106.599997,369.007991 C105.842664,368.834657 105.078664,368.657324 104.298664,368.575991 C97.6893309,367.885324 95.1973309,370.531991 96.1706642,377.202657 C97.0226642,383.026657 99.8893308,387.785324 103.421331,392.090657 C115.23333,406.47999 129.00933,418.85199 145.73333,427.369323 C171.073329,440.274656 196.821328,435.867989 221.670661,418.777323 C233.553327,410.60399 245.102661,402.00399 258.24666,396.149323 C272.52666,389.789324 287.003993,386.22399 302.322659,386.274657 C369.785324,386.494657 437.269322,386.48799 504.751987,386.477324 L504.925321,427.181323 L504.925321,498.499988 L162.706663,498.854654 C54.0346653,493.402654 -0.0906666894,431.229323 0.3333333,312.333326" id="path34"></path>
                            </g>
                            <g id="g40" transform="translate(214.195328, 0.988896)">
                                <polygon id="path42" points="1.6666666 497.666654 0.221333303 497.666654 0.221333303 0.277333301 148.726663 0.277333301 148.726663 497.666654 146.975996 497.666654"></polygon>
                            </g>
                            <g id="g44" transform="translate(0.005867, 0.988896)">
                                <polygon id="path46" points="1.6666666 497.666654 0.221333303 497.666654 0.221333303 0.277333301 148.726663 0.277333301 148.726663 497.666654 146.975996 497.666654"></polygon>
                            </g>
                            <g id="g48" transform="translate(965.001309, 0.988896)">
                                <polygon id="path50" points="1.6666666 497.666654 0.219999969 497.666654 0.219999969 0.277333301 0.221333303 0.277333301 148.72533 0.277333301 148.726663 0.277333301 148.726663 497.666654 146.975996 497.666654"></polygon>
                            </g>
                            <g id="g52" transform="translate(1745.091156, 0.285829)">
                                <polygon id="path54" points="149.33333 386.666657 149.33333 403.134657 149.33333 498.369321 147.699996 498.369321 2.39066661 498.369321 0.826666646 498.369321 0.826666646 403.134657 0.826666646 386.666657 0.826666646 0.979999976 0.94533331 0.979999976 149.33333 0.979999976 149.450663 0.979999976 149.33333 34.3773325"></polygon>
                            </g>
                        </g>
                    </g>
                </g>
            </g>
        </g>
        <g id="g52" transform="translate(2559.000000, 41.000000)" fill="#333366" fill-rule="nonzero">
            <polygon id="path54" points="149.33333 386.666657 149.33333 403.134657 149.33333 498.369321 147.699996 498.369321 2.39066661 498.369321 0.826666646 498.369321 0.826666646 403.134657 0.826666646 386.666657 0.826666646 0.979999976 0.94533331 0.979999976 149.33333 0.979999976 149.450663 0.979999976 149.33333 34.3773325"></polygon>
        </g>
    </g>
</svg>