<?xml version="1.0" encoding="UTF-8"?>
<svg width="167px" height="167px" viewBox="0 0 167 167" version="1.1" xmlns="http://www.w3.org/2000/svg" xmlns:xlink="http://www.w3.org/1999/xlink">
    <!-- Generator: Sketch 47.1 (45422) - http://www.bohemiancoding.com/sketch -->
    <title>Jobs</title>
    <desc>Created with Sketch.</desc>
    <defs></defs>
    <g id="Welcome" stroke="none" stroke-width="1" fill="none" fill-rule="evenodd">
        <g id="Jobs">
            <circle id="Oval-2" fill="#224978" cx="83.5" cy="83.5" r="73.5"></circle>
            <g id="open95" fill="#000000" transform="translate(105.000000, 117.000000) rotate(9.000000) translate(-105.000000, -117.000000) translate(75.000000, 87.000000)">
                <g id="Group" fill="none">
                    <path d="M26.2970149,23.2329851 L1.4538806,48.0761194 C0.529701493,48.9998507 0.0676119403,50.1067164 0.0676119403,51.3958209 C0.0676119403,52.7091045 0.529701493,53.8034328 1.4538806,54.6792537 L5.32074627,58.6191045 C6.26955224,59.5191045 7.37597015,59.9686567 8.64044776,59.9686567 C9.92955224,59.9686567 11.0238806,59.5191045 11.9238806,58.6191045 L36.8028358,33.7397015 C34.4202985,32.7908955 32.3104478,31.3983582 30.4737313,29.5625373 C28.6379104,27.7262687 27.2458209,25.6164179 26.2970149,23.2329851 L26.2970149,23.2329851 Z M12.6170149,50.7026866 C12.1544776,51.1643284 11.6073134,51.3958209 10.9750746,51.3958209 C10.3428358,51.3958209 9.79567164,51.1643284 9.33358209,50.7026866 C8.87149254,50.240597 8.64044776,49.6934328 8.64044776,49.061194 C8.64044776,48.4289552 8.87149254,47.8813433 9.33358209,47.418806 C9.79567164,46.9571642 10.3423881,46.7261194 10.9750746,46.7261194 C11.6077612,46.7261194 12.1549254,46.9571642 12.6170149,47.418806 C13.0791045,47.8813433 13.3101493,48.4289552 13.3101493,49.061194 C13.3101493,49.6934328 13.0791045,50.240597 12.6170149,50.7026866 L12.6170149,50.7026866 Z" id="Shape" fill="#F5A623"></path>
                    <path d="M59.6225373,16.9580597 C59.4156716,16.7144776 59.1295522,16.5931343 58.7650746,16.5931343 C58.5465672,16.5931343 57.6895522,17.0252239 56.1935821,17.8885075 C54.6976119,18.751791 53.0498507,19.7364179 51.2502985,20.8432836 C49.4502985,21.9501493 48.4898507,22.5398507 48.3685075,22.6128358 L41.3270149,18.7092537 L41.3270149,10.5376119 L52.0155224,4.3719403 C52.4046269,4.10462687 52.599403,3.7638806 52.599403,3.35059701 C52.599403,2.93731343 52.4046269,2.59701493 52.0155224,2.32925373 C50.9453731,1.59940299 49.6379104,1.0338806 48.0940299,0.632686567 C46.5497015,0.231492537 45.0720896,0.0308955224 43.6616418,0.0308955224 C39.1625373,0.0308955224 35.3140299,1.63029851 32.1161194,4.82820896 C28.9173134,8.0261194 27.318806,11.8750746 27.318806,16.3741791 C27.318806,20.8732836 28.918209,24.7222388 32.1161194,27.9201493 C35.3140299,31.1180597 39.1625373,32.7174627 43.6616418,32.7174627 C47.0914925,32.7174627 50.2347761,31.7014925 53.0923881,29.6708955 C55.9495522,27.6402985 57.9501493,24.9953731 59.0932836,21.7365672 C59.6520896,20.1071642 59.9319403,18.8180597 59.9319403,17.8697015 C59.9328358,17.5056716 59.8289552,17.2016418 59.6225373,16.9580597 L59.6225373,16.9580597 Z" id="Shape" fill="#F5A623"></path>
                </g>
            </g>
            <path d="M49,128 L62.5256917,128 L62.5256917,96.452381 L99.8379447,96.452381 L108,91.5037975 L108,75 L65.7062846,75.4025316 C54.5687615,77.6579867 49,82.5714286 49,90.1428571 C49,97.7142857 49,110.333333 49,128 Z" id="Path-20" fill="#FFFFFF"></path>
            <path d="M65,71 L65,120 L101,95.5 L101,71 L92.1921028,71 L92.1921028,74.5544041 C81.706858,74.5999206 75.1516895,74.5999206 72.5265972,74.5544041 C72.5265972,74.5544041 72.5265972,73.3696028 72.5265972,71 L65,71 Z" id="Path-21" fill="#D1AB2B"></path>
            <path d="M62.5,46 C63.5,48.6911871 64,50.4297563 64,51.2157076 C64,52.3946345 66.3578538,51.805171 66.6525855,53.5735614 C66.9473172,55.3419517 72.6945859,67.6789269 83.5996597,66.5 C90.8697089,65.7140487 96.4204897,61.208748 100.252002,52.9840979 C102.21688,51.2157076 103.199319,49.9385368 103.199319,49.1525855 C103.199319,48.3666343 103.199319,47.3157724 103.199319,46 L62.5,46 Z" id="Path-23" fill="#E8DCDC"></path>
            <path d="M81.5,18.5 L81.5,43.5" id="Line" stroke="#FFFFFF" stroke-linecap="square"></path>
            <path d="M55.8852459,42 L108.114754,42 C108.704918,42.5 109,43 109,43.5 C109,44 108.704918,44.5 108.114754,45 L55.8852459,45 C55.295082,44.5 55,44 55,43.5 C55,43 55.295082,42.5 55.8852459,42 Z" id="Rectangle" fill="#F5A623"></path>
            <path d="M80.7932281,18.0493097 C95.4108043,17.2932281 103.979728,25.2320842 106.5,41.8658777 L58.5,41.8658777 C58.7445759,26.7442472 66.175652,18.8053912 80.7932281,18.0493097 Z" id="Triangle" fill="#F5A623"></path>
            <path d="M83.5,18.5 L83.5,40.5" id="Line-2" stroke="#F0EDED" stroke-linecap="square"></path>
            <path d="M71.5,20.5 L71.5,35.5" id="Line-2" stroke="#F0EDED" stroke-linecap="square"></path>
            <path d="M94.5,22.5 L94.5,37.5" id="Line-2" stroke="#F0EDED" stroke-linecap="square"></path>
        </g>
        <path d="" id="Path-22" stroke="#979797"></path>
        <path d="" id="Path-25" stroke="#979797"></path>
    </g>
</svg>